<?xml version="1.0" encoding="UTF-8" standalone="no"?>
<!DOCTYPE svg PUBLIC "-//W3C//DTD SVG 1.1//EN" "http://www.w3.org/Graphics/SVG/1.1/DTD/svg11.dtd">
<svg width="100%" height="100%" viewBox="0 0 600 300" version="1.1" xmlns="http://www.w3.org/2000/svg" xmlns:xlink="http://www.w3.org/1999/xlink" xml:space="preserve" xmlns:serif="http://www.serif.com/" style="fill-rule:evenodd;clip-rule:evenodd;stroke-linejoin:round;stroke-miterlimit:2;">
    <g transform="matrix(0.361735,0,0,0.361735,10.612,-117.603)">
        <g transform="matrix(3.86041,0,0,4.22778,-358.123,-105.78)">
            <rect x="99.992" y="114.35" width="400.017" height="171.301" style="fill:rgb(137,166,31);"/>
            <path d="M514.927,299.273L514.927,100.727L85.073,100.727L85.073,299.273L514.927,299.273ZM500.008,114.35L99.992,114.35L99.992,285.65L500.008,285.65L500.008,114.35Z" style="fill:rgb(56,89,5);"/>
        </g>
        <g id="Layer2">
            <rect x="115.484" y="464.524" width="1338.55" height="217.798" style="fill:rgb(242,210,182);"/>
            <g transform="matrix(0.952931,0,0,1.00004,36.9377,302.659)">
                <rect x="115.484" y="464.524" width="1338.55" height="217.798" style="fill:rgb(242,210,182);"/>
            </g>
        </g>
        <g id="path279-0" transform="matrix(5.58436,0,0,5.58436,-822.955,-1477.91)">
            <path d="M168.048,342.235L168.048,347.835L162.448,347.835L162.448,386.837L168.048,386.837L168.048,392.298L173.618,392.298L173.618,396.437L168.089,396.437L168.089,446.5L173.689,446.5L173.689,452.015L212.69,452.015L212.69,446.5L223.861,446.5L223.861,452.015L246.093,452.015L246.093,446.5L251.665,446.5L251.665,452.015L318.497,452.015L318.497,446.503L327.111,446.503L327.111,446.5L329.67,446.5L329.67,452.015L351.9,452.015L351.9,441.037L357.5,441.037L357.5,441.039L363.099,441.039L363.099,446.5L368.671,446.5L368.671,452.015L407.674,452.015L407.674,446.5L413.161,446.5L413.161,407.497L407.674,407.497L407.674,402.036L402.102,402.036L402.102,397.813L418.802,397.813L418.802,381.238L413.315,381.238L413.315,364.495L418.802,364.495L418.802,347.835L413.315,347.835L413.315,342.235L363.141,342.235L363.141,347.835L357.569,347.835L357.569,342.235L318.568,342.235L318.568,347.835L307.397,347.835L307.397,342.235L268.394,342.235L268.394,347.835L257.223,347.835L257.223,342.235L212.621,342.235L212.621,347.835L207.049,347.835L207.049,342.235L168.048,342.235ZM173.618,347.835L201.449,347.835L201.449,353.295L207.049,353.295L207.049,358.895L195.878,358.895L195.878,353.295L179.219,353.295L179.219,364.495L201.449,364.495L201.449,370.066L207.049,370.066L207.049,381.238L201.449,381.238L201.449,386.837L173.618,386.837L173.618,381.238L168.048,381.238L168.048,375.666L179.219,375.666L179.219,381.238L195.878,381.238L195.878,370.066L173.618,370.066L173.618,364.495L168.048,364.495L168.048,353.295L173.618,353.295L173.618,347.835ZM218.22,347.835L251.623,347.835L251.623,353.295L257.223,353.295L257.223,370.066L251.623,370.066L251.623,375.666L229.392,375.666L229.392,386.837L218.22,386.837L218.22,347.835ZM273.966,347.835L301.797,347.835L301.797,353.295L307.397,353.295L307.397,386.837L296.224,386.837L296.224,375.666L279.565,375.666L279.565,386.837L268.394,386.837L268.394,353.295L273.966,353.295L273.966,347.835ZM324.14,347.835L351.97,347.835L351.97,353.295L357.569,353.295L357.569,358.895L346.398,358.895L346.398,353.295L329.739,353.295L329.739,381.238L346.398,381.238L346.398,375.666L357.569,375.666L357.569,381.238L351.97,381.238L351.97,386.837L324.14,386.837L324.14,381.238L318.568,381.238L318.568,353.295L324.14,353.295L324.14,347.835ZM368.741,347.835L407.743,347.835L407.743,353.295L379.912,353.295L379.912,364.495L402.144,364.495L402.144,370.066L379.912,370.066L379.912,381.238L407.743,381.238L407.743,386.837L368.741,386.837L368.741,379.921L369.228,379.921L369.228,370.066L368.741,370.066L368.741,347.835ZM229.392,353.295L229.392,370.066L246.051,370.066L246.051,353.295L229.392,353.295ZM279.565,353.295L279.565,370.066L296.224,370.066L296.224,353.295L279.565,353.295ZM173.689,402.036L201.519,402.036L201.519,407.497L207.092,407.497L207.092,413.097L212.69,413.097L212.69,429.868L207.092,429.868L207.092,435.439L201.519,435.439L201.519,441.039L173.689,441.039L173.689,402.036ZM223.861,402.036L235.033,402.036L235.033,441.039L223.861,441.039L223.861,402.036ZM251.665,402.036L279.496,402.036L279.496,407.497L285.096,407.497L285.096,413.097L273.924,413.097L273.924,407.497L257.264,407.497L257.264,435.439L273.924,435.439L273.924,424.268L268.325,424.268L268.325,418.696L285.096,418.696L285.096,441.039L279.496,441.039L279.496,435.439L273.924,435.439L273.924,441.039L251.665,441.039L251.665,435.439L246.093,435.439L246.093,407.497L251.665,407.497L251.665,402.036ZM296.267,402.036L307.438,402.036L307.438,441.039L296.267,441.039L296.267,402.036ZM318.497,402.036L351.9,402.036L351.9,407.497L340.729,407.497L340.729,441.039L329.67,441.039L329.67,407.497L318.497,407.497L318.497,402.036ZM368.671,402.036L396.502,402.036L396.502,407.497L402.102,407.497L402.102,413.097L390.931,413.097L390.931,407.497L374.271,407.497L374.271,418.696L396.502,418.696L396.502,424.268L402.102,424.268L402.102,435.439L396.502,435.439L396.502,441.039L368.671,441.039L368.671,435.439L363.099,435.439L363.099,429.868L374.271,429.868L374.271,435.439L390.931,435.439L390.931,424.268L368.671,424.268L368.671,418.696L363.099,418.696L363.099,407.497L368.671,407.497L368.671,402.036ZM184.86,407.497L184.86,435.439L195.919,435.439L195.919,429.868L201.519,429.868L201.519,413.097L195.919,413.097L195.919,407.497L184.86,407.497Z" style="fill:rgb(56,89,5);fill-rule:nonzero;"/>
        </g>
    </g>
</svg>
